<svg xmlns="http://www.w3.org/2000/svg" xmlns:xlink="http://www.w3.org/1999/xlink" version="1.1" x="0px" y="0px" viewBox="0 0 100 125" enable-background="new 0 0 100 100" xml:space="preserve"><g><g><g><circle fill="none" cx="69.23" cy="27.334" r="1.454"/><path fill="none" d="M66.714,39.005l7.698-15.276h-4.773c-1.642,0-3.192,0.871-4.046,2.274l-3.334,5.48     c-0.041,0.067-0.113,0.107-0.191,0.107h-8.425c-0.072,0-0.139-0.035-0.181-0.093c-0.042-0.058-0.053-0.134-0.03-0.202     c0.027-0.078,2.556-7.858-3.431-14.023c-5.994,6.171-3.458,13.945-3.431,14.023c0.023,0.068,0.012,0.143-0.03,0.201     s-0.109,0.093-0.181,0.093h-8.425c-0.078,0-0.15-0.041-0.191-0.107l-3.334-5.48c-0.854-1.403-2.404-2.274-4.046-2.274H25.59     l7.698,15.276H66.714z M69.23,25.433c1.048,0,1.9,0.852,1.9,1.9c0,1.048-0.852,1.9-1.9,1.9s-1.9-0.852-1.9-1.9     C67.33,26.286,68.182,25.433,69.23,25.433z M50.001,23.012c0.978,0,1.744,1.572,1.744,3.577c0,2.006-0.766,3.578-1.744,3.578     s-1.744-1.572-1.744-3.578C48.257,24.583,49.023,23.012,50.001,23.012z M30.772,29.234c-1.048,0-1.9-0.852-1.9-1.9     c0-1.048,0.852-1.9,1.9-1.9s1.9,0.852,1.9,1.9C32.672,28.381,31.82,29.234,30.772,29.234z M32.846,37.45     c0-0.123,0.1-0.223,0.223-0.223h33.127c0.123,0,0.223,0.1,0.223,0.223s-0.1,0.223-0.223,0.223H33.069     C32.945,37.673,32.846,37.573,32.846,37.45z"/><path fill="none" d="M50.001,29.721c0.614,0,1.298-1.286,1.298-3.132c0-1.846-0.684-3.131-1.298-3.131s-1.298,1.286-1.298,3.131     C48.703,28.435,49.387,29.721,50.001,29.721z"/><circle fill="none" cx="30.772" cy="27.334" r="1.454"/><path fill="none" d="M53.008,92.761c0.333-0.212,0.67-0.42,0.996-0.636c0.407-0.271,0.802-0.55,1.198-0.828     c0.217-0.152,0.439-0.301,0.654-0.456c0.455-0.329,0.898-0.665,1.339-1.003c0.141-0.108,0.285-0.213,0.424-0.321     c0.488-0.381,0.964-0.769,1.434-1.161c0.081-0.067,0.164-0.133,0.244-0.201c0.513-0.433,1.016-0.872,1.508-1.316     c0.028-0.026,0.058-0.051,0.086-0.077c9.455-8.574,15.134-19.359,18.533-29.605c0.028-0.084,0.056-0.168,0.084-0.252     c0.143-0.434,0.279-0.866,0.413-1.298c0.061-0.196,0.122-0.392,0.181-0.588c0.104-0.341,0.204-0.68,0.303-1.019     c0.087-0.298,0.172-0.596,0.255-0.893c0.07-0.251,0.14-0.502,0.208-0.753c0.107-0.396,0.212-0.792,0.313-1.186     c0.042-0.163,0.084-0.326,0.125-0.489c0.126-0.501,0.247-1,0.364-1.497c0.015-0.064,0.031-0.129,0.046-0.194     c0.546-2.348,0.991-4.646,1.351-6.865c0.04-0.249,0.077-0.495,0.116-0.743c0.042-0.273,0.085-0.546,0.125-0.816     c0.011-0.077,0.021-0.153,0.032-0.23L21.19,58.933c4.019,11.288,10.886,23.027,22.558,31.609     c0.267,0.196,0.534,0.392,0.805,0.583c0.36,0.255,0.725,0.507,1.094,0.756c0.412,0.277,0.828,0.549,1.248,0.816     c0.284,0.181,0.564,0.365,0.853,0.542c0.734,0.451,1.475,0.892,2.233,1.314h0.043c0.694-0.386,1.372-0.784,2.038-1.19     C52.383,93.167,52.693,92.962,53.008,92.761z"/><path fill="none" d="M83.41,39.849c2.137-15.185,0.731-27.623,0.553-29.066l-0.016-0.005C73.025,7.24,61.659,5.446,50.165,5.446     c-0.11,0-0.218,0-0.327,0c-11.496,0-22.86,1.794-33.782,5.332l-0.017,0.005c-0.193,1.568-1.84,16.11,1.187,33.058     c0.815,4.563,2.027,9.566,3.815,14.67L83.41,39.849z M25.038,23.389c0.041-0.066,0.113-0.106,0.19-0.106h5.135     c1.797,0,3.493,0.953,4.427,2.488l3.269,5.373h8.003c-0.41-1.523-1.921-8.644,3.782-14.347c0.084-0.084,0.232-0.084,0.315,0     c5.703,5.703,4.192,12.823,3.781,14.347h8.003l3.269-5.373c0.934-1.535,2.63-2.488,4.427-2.488h5.135     c0.077,0,0.149,0.04,0.19,0.106c0.041,0.066,0.044,0.148,0.009,0.217l-7.923,15.722c-0.038,0.075-0.115,0.123-0.199,0.123H33.15     c-0.084,0-0.161-0.047-0.199-0.123l-7.922-15.722C24.994,23.537,24.998,23.455,25.038,23.389z"/><path d="M83.542,41.977c0.047-0.292,0.09-0.579,0.134-0.868c0.037-0.244,0.075-0.489,0.11-0.732     c0.016-0.107,0.034-0.217,0.049-0.325c0.001-0.005-0.002-0.009-0.002-0.014c2.298-16.195,0.573-29.312,0.554-29.453     c-0.012-0.085-0.071-0.156-0.152-0.182l-0.151-0.049C73.117,6.801,61.706,5,50.166,5c-0.11,0-0.219,0-0.328,0     c-11.541,0-22.953,1.801-33.919,5.354l-0.151,0.049c-0.081,0.026-0.141,0.097-0.152,0.182c-0.021,0.152-2.029,15.398,1.17,33.323     c0.943,5.286,2.241,10.281,3.88,14.957c0,0.001-0.001,0.003,0,0.004c0.385,1.099,0.792,2.176,1.214,3.237     c0.109,0.274,0.227,0.539,0.338,0.81c0.326,0.794,0.657,1.582,1.004,2.354c0.145,0.323,0.297,0.639,0.446,0.959     c0.331,0.712,0.669,1.417,1.018,2.11c0.162,0.32,0.327,0.636,0.493,0.952c0.358,0.685,0.725,1.361,1.101,2.027     c0.091,0.161,0.174,0.33,0.266,0.489c0.062,0.108,0.132,0.207,0.194,0.314c1.344,2.306,2.797,4.492,4.36,6.556     c0.112,0.148,0.226,0.294,0.34,0.441c0.781,1.014,1.584,2.004,2.419,2.958c0.01,0.011,0.019,0.023,0.029,0.034     c0.879,1.004,1.79,1.972,2.728,2.909c0.087,0.087,0.177,0.171,0.265,0.258c0.844,0.832,1.711,1.638,2.601,2.416     c0.122,0.107,0.242,0.216,0.365,0.322c0.969,0.834,1.962,1.641,2.985,2.411c0.097,0.073,0.198,0.142,0.296,0.215     c0.89,0.662,1.803,1.297,2.734,1.912c0.255,0.169,0.51,0.337,0.768,0.502c1.041,0.664,2.097,1.31,3.186,1.916     C49.846,94.99,49.884,95,49.922,95h0.159c0.038,0,0.075-0.01,0.108-0.028c1.105-0.615,2.165-1.262,3.202-1.926     c0.185-0.118,0.371-0.234,0.555-0.354c0.991-0.649,1.949-1.321,2.878-2.012c0.207-0.154,0.411-0.311,0.616-0.467     c0.916-0.7,1.808-1.415,2.665-2.153c0.202-0.173,0.397-0.355,0.596-0.531c0.738-0.653,1.456-1.319,2.15-1.998     c0.315-0.307,0.625-0.619,0.933-0.933c0.583-0.595,1.148-1.2,1.7-1.812c0.441-0.488,0.873-0.985,1.3-1.489     c0.432-0.512,0.856-1.028,1.268-1.55c0.595-0.752,1.171-1.525,1.737-2.309c0.227-0.315,0.455-0.63,0.675-0.948     c0.708-1.022,1.388-2.073,2.046-3.148c0.066-0.109,0.135-0.216,0.201-0.325c0.246-0.407,0.51-0.795,0.749-1.21     c3.007-5.221,5.441-11.055,7.298-17.407c0.201-0.685,0.392-1.368,0.575-2.048c0.128-0.477,0.254-0.956,0.375-1.439     c0.218-0.862,0.42-1.717,0.611-2.567c0.072-0.322,0.144-0.644,0.213-0.969c0.229-1.069,0.436-2.124,0.626-3.166     c0.019-0.102,0.042-0.201,0.06-0.303c0.019-0.107,0.036-0.212,0.054-0.318c0.029-0.166,0.056-0.329,0.084-0.494     C83.419,42.722,83.483,42.348,83.542,41.977z M16.039,10.784l0.017-0.005C26.978,7.24,38.342,5.446,49.838,5.446     c0.109,0,0.217,0,0.327,0c11.494,0,22.86,1.794,33.782,5.332l0.016,0.005c0.178,1.443,1.584,13.88-0.553,29.066L21.041,58.512     c-1.787-5.105-3-10.107-3.815-14.67C14.199,26.894,15.846,12.351,16.039,10.784z M49.98,94.554     c-0.757-0.422-1.499-0.863-2.233-1.314c-0.289-0.178-0.569-0.361-0.853-0.542c-0.42-0.268-0.836-0.539-1.248-0.816     c-0.369-0.249-0.734-0.501-1.094-0.756c-0.271-0.191-0.537-0.388-0.805-0.583C32.076,81.96,25.209,70.221,21.19,58.933     l62.151-18.598c-0.011,0.077-0.021,0.153-0.032,0.23c-0.04,0.27-0.083,0.543-0.125,0.816c-0.038,0.247-0.076,0.494-0.116,0.743     c-0.361,2.219-0.805,4.517-1.351,6.865c-0.015,0.064-0.031,0.129-0.046,0.194c-0.117,0.497-0.238,0.996-0.364,1.497     c-0.041,0.162-0.083,0.326-0.125,0.489c-0.101,0.394-0.206,0.79-0.313,1.186c-0.068,0.25-0.137,0.501-0.208,0.753     c-0.083,0.297-0.169,0.595-0.255,0.893c-0.099,0.339-0.199,0.679-0.303,1.019c-0.059,0.196-0.121,0.392-0.181,0.588     c-0.135,0.432-0.271,0.864-0.413,1.298c-0.028,0.084-0.056,0.168-0.084,0.252c-3.399,10.246-9.078,21.031-18.533,29.605     c-0.028,0.026-0.058,0.051-0.086,0.077c-0.492,0.445-0.995,0.884-1.508,1.316c-0.08,0.068-0.163,0.134-0.244,0.201     c-0.47,0.392-0.946,0.78-1.434,1.161c-0.139,0.109-0.283,0.214-0.424,0.321c-0.441,0.338-0.884,0.674-1.339,1.003     c-0.214,0.154-0.436,0.303-0.654,0.456c-0.396,0.278-0.791,0.557-1.198,0.828c-0.326,0.216-0.663,0.425-0.996,0.636     c-0.316,0.201-0.625,0.406-0.947,0.602c-0.666,0.406-1.345,0.804-2.038,1.19H49.98z"/><path d="M32.951,39.328c0.038,0.075,0.115,0.123,0.199,0.123h33.701c0.084,0,0.161-0.047,0.199-0.123l7.923-15.722     c0.035-0.069,0.031-0.151-0.009-0.217c-0.041-0.066-0.113-0.106-0.19-0.106h-5.135c-1.797,0-3.493,0.953-4.427,2.488     l-3.269,5.373H53.94c0.41-1.523,1.921-8.644-3.781-14.347c-0.084-0.084-0.232-0.084-0.315,0     c-5.703,5.703-4.192,12.823-3.782,14.347h-8.003l-3.269-5.373c-0.934-1.535-2.63-2.488-4.427-2.488h-5.135     c-0.077,0-0.149,0.04-0.19,0.106c-0.04,0.066-0.044,0.148-0.009,0.217L32.951,39.328z M30.363,23.729     c1.642,0,3.192,0.871,4.046,2.274l3.334,5.48c0.041,0.067,0.113,0.107,0.191,0.107h8.425c0.072,0,0.139-0.035,0.181-0.093     s0.053-0.133,0.03-0.201c-0.027-0.078-2.563-7.852,3.431-14.023c5.987,6.165,3.457,13.945,3.431,14.023     c-0.023,0.068-0.012,0.143,0.03,0.202c0.042,0.058,0.109,0.093,0.181,0.093h8.425c0.078,0,0.15-0.041,0.191-0.107l3.334-5.48     c0.854-1.403,2.404-2.274,4.046-2.274h4.773l-7.698,15.276H33.288L25.59,23.729H30.363z"/><path d="M50.001,30.167c0.978,0,1.744-1.572,1.744-3.578c0-2.006-0.766-3.577-1.744-3.577s-1.744,1.572-1.744,3.577     C48.257,28.595,49.023,30.167,50.001,30.167z M50.001,23.458c0.614,0,1.298,1.286,1.298,3.131c0,1.846-0.684,3.132-1.298,3.132     s-1.298-1.286-1.298-3.132C48.703,24.744,49.387,23.458,50.001,23.458z"/><path d="M69.23,29.234c1.048,0,1.9-0.852,1.9-1.9c0-1.048-0.852-1.9-1.9-1.9s-1.9,0.852-1.9,1.9     C67.33,28.381,68.182,29.234,69.23,29.234z M69.23,25.88c0.802,0,1.454,0.652,1.454,1.454c0,0.802-0.652,1.454-1.454,1.454     c-0.802,0-1.454-0.653-1.454-1.454C67.776,26.532,68.428,25.88,69.23,25.88z"/><path d="M30.772,25.433c-1.048,0-1.9,0.852-1.9,1.9c0,1.048,0.852,1.9,1.9,1.9s1.9-0.852,1.9-1.9     C32.672,26.286,31.82,25.433,30.772,25.433z M30.772,28.788c-0.802,0-1.454-0.653-1.454-1.454c0-0.802,0.652-1.454,1.454-1.454     c0.802,0,1.454,0.652,1.454,1.454C32.226,28.135,31.574,28.788,30.772,28.788z"/><path d="M66.419,37.45c0-0.123-0.1-0.223-0.223-0.223H33.069c-0.123,0-0.223,0.1-0.223,0.223s0.1,0.223,0.223,0.223h33.127     C66.319,37.673,66.419,37.573,66.419,37.45z"/></g></g></g></svg>